<?xml version="1.0" standalone="no"?>
<!DOCTYPE svg PUBLIC "-//W3C//DTD SVG 20010904//EN"
 "http://www.w3.org/TR/2001/REC-SVG-20010904/DTD/svg10.dtd">
<svg version="1.0" xmlns="http://www.w3.org/2000/svg"
 width="512.000000pt" height="512.000000pt" viewBox="0 0 512.000000 512.000000"
 preserveAspectRatio="xMidYMid meet">
<metadata>
Created by potrace 1.14, written by Peter Selinger 2001-2017
</metadata>
<g transform="translate(0.000000,512.000000) scale(0.100000,-0.100000)"
fill="#000000" stroke="none">
<path d="M0 2560 l0 -2560 2560 0 2560 0 0 2560 0 2560 -2560 0 -2560 0 0
-2560z m2659 1156 l62 -159 -63 -64 c-34 -35 -67 -63 -73 -63 -6 0 -39 28 -73
63 l-63 64 47 119 c25 65 55 143 66 173 14 37 23 50 28 40 5 -8 36 -86 69
-173z m177 -868 c131 -290 242 -527 246 -525 3 1 69 61 145 132 76 72 163 154
194 183 l56 52 95 -228 c53 -125 100 -227 106 -227 10 0 84 77 416 435 110
118 210 226 223 240 l24 25 -15 -40 c-8 -22 -49 -130 -91 -240 -42 -110 -103
-270 -135 -355 -32 -85 -91 -238 -130 -340 -123 -319 -116 -293 -97 -333 21
-44 21 -70 1 -112 -47 -100 -223 -153 -669 -201 -230 -25 -1009 -25 -1240 0
-285 30 -463 65 -567 110 -50 22 -104 77 -111 115 -7 35 1 89 14 97 16 9 10
37 -32 144 -22 58 -44 116 -49 130 -5 14 -41 108 -80 210 -142 370 -300 788
-300 796 0 5 14 -7 31 -26 18 -19 89 -96 159 -170 70 -74 200 -214 289 -310
90 -96 168 -175 173 -175 6 0 53 102 106 227 l96 227 56 -52 c30 -28 117 -110
193 -182 76 -71 142 -131 145 -132 4 -2 81 160 171 360 161 354 215 473 288
630 20 43 39 74 43 70 4 -4 115 -245 246 -535z m-2008 286 c42 -27 55 -101 26
-143 -59 -83 -194 -43 -194 58 0 88 92 134 168 85z m3616 12 c43 -18 66 -51
66 -97 0 -73 -75 -124 -142 -96 -44 18 -59 38 -64 84 -6 49 12 84 56 105 42
22 42 22 84 4z m-2724 -326 c11 -11 20 -31 20 -45 0 -29 -32 -65 -59 -65 -29
0 -71 39 -71 65 0 30 36 65 67 65 13 0 32 -9 43 -20z m1818 0 c30 -28 28 -64
-4 -89 -34 -26 -54 -26 -82 -1 -27 26 -28 64 -2 90 26 26 60 25 88 0z"/>
<path d="M2531 3014 c-30 -66 -71 -155 -91 -199 -59 -126 -204 -444 -235 -514
l-29 -63 80 -77 c43 -42 135 -129 203 -194 l124 -117 31 27 c37 34 181 170
295 280 l85 81 -51 113 c-49 108 -236 518 -319 698 l-39 84 -54 -119z"/>
<path d="M1656 2323 c-42 -97 -74 -183 -71 -191 7 -19 256 -288 273 -296 9 -4
25 21 51 77 91 195 131 285 131 294 0 9 -293 293 -303 293 -2 0 -39 -80 -81
-177z"/>
<path d="M3334 2408 c-54 -51 -123 -116 -153 -144 l-55 -52 43 -98 c24 -55 64
-142 88 -194 l45 -95 139 145 c76 80 141 152 144 161 4 13 -133 351 -149 366
-2 3 -48 -38 -102 -89z"/>
<path d="M1158 2375 c104 -287 186 -495 193 -488 4 4 29 57 54 116 l46 109
-58 61 c-31 34 -87 94 -124 132 -36 39 -82 88 -103 110 l-36 40 28 -80z"/>
<path d="M3995 2408 c-15 -18 -57 -64 -94 -103 -37 -38 -92 -97 -124 -131
l-57 -61 45 -109 c25 -60 49 -112 54 -117 4 -4 54 116 111 268 56 152 100 278
98 281 -3 3 -18 -10 -33 -28z"/>
<path d="M2058 1983 c-37 -81 -66 -148 -64 -150 4 -4 418 16 423 21 4 4 -273
269 -285 273 -4 2 -37 -63 -74 -144z"/>
<path d="M2970 2067 c-36 -34 -100 -95 -143 -136 -43 -40 -76 -75 -74 -77 4
-5 419 -25 423 -21 5 4 -129 297 -136 297 -3 0 -34 -28 -70 -63z"/>
<path d="M1526 2012 c-12 -19 -126 -285 -123 -288 1 -2 28 6 60 16 31 10 106
29 167 41 l110 22 -90 97 c-104 113 -116 124 -124 112z"/>
<path d="M3584 1968 c-27 -29 -73 -78 -102 -109 l-52 -56 110 -22 c60 -12 136
-31 167 -41 32 -10 59 -18 60 -16 4 4 -116 279 -126 289 -4 4 -30 -16 -57 -45z"/>
<path d="M2255 1744 c-22 -2 -114 -8 -205 -15 -353 -23 -621 -80 -658 -139
-31 -50 41 -90 224 -128 235 -48 552 -72 969 -72 724 0 1241 84 1199 195 -22
56 -250 109 -604 141 -152 14 -829 27 -925 18z"/>
</g>
</svg>
